<?xml version="1.0" standalone="no"?>
<!DOCTYPE svg PUBLIC "-//W3C//DTD SVG 20010904//EN"
 "http://www.w3.org/TR/2001/REC-SVG-20010904/DTD/svg10.dtd">
<svg version="1.0" xmlns="http://www.w3.org/2000/svg"
 width="396.000000pt" height="396.000000pt" viewBox="0 0 396.000000 396.000000"
 preserveAspectRatio="xMidYMid meet">
<metadata>
Created by potrace 1.14, written by Peter Selinger 2001-2017
</metadata>
<g transform="translate(0.000000,396.000000) scale(0.100000,-0.100000)"
fill="#000000" stroke="none">
<path d="M1025 3333 c-64 -5 -193 -22 -263 -34 l-64 -11 6 -55 c7 -60 31 -114
69 -153 20 -22 25 -39 30 -122 13 -175 62 -316 134 -379 146 -128 396 -131
634 -7 94 48 192 135 223 197 13 25 38 89 56 141 40 119 54 146 85 166 52 34
99 -13 153 -153 50 -128 123 -252 184 -313 86 -87 260 -136 452 -127 130 5
188 24 252 80 59 52 90 124 131 305 28 127 40 162 64 192 33 41 59 114 59 166
l0 32 -92 22 c-174 40 -308 52 -508 47 -166 -4 -201 -9 -335 -40 -304 -70
-347 -71 -620 -11 -88 20 -205 42 -260 50 -90 12 -286 16 -390 7z m1866 -91
c94 -37 136 -96 155 -218 12 -83 -31 -265 -84 -350 -84 -136 -329 -163 -537
-59 -116 58 -174 124 -215 245 -24 72 -45 210 -36 245 11 45 126 106 261 139
93 23 110 24 260 22 116 -2 150 -6 196 -24z m-1406 4 c176 -27 253 -75 273
-173 26 -124 -50 -298 -186 -425 -70 -66 -157 -92 -307 -93 -171 0 -260 36
-305 126 -66 129 -87 359 -41 457 30 64 70 85 196 102 50 6 97 13 105 15 42 8
185 3 265 -9z m-617 -25 c17 -11 -6 -21 -48 -21 -16 0 -36 3 -45 6 -25 10 2
24 45 24 19 0 41 -4 48 -9z m2296 -9 c6 -4 -6 -9 -29 -12 -44 -6 -77 -2 -70 9
6 10 84 13 99 3z"/>
<path d="M921 2390 c-11 -47 -11 -63 -1 -75 7 -8 14 -58 17 -116 4 -89 3 -105
-14 -128 -11 -14 -22 -33 -25 -41 -7 -21 19 -191 32 -204 16 -16 12 -63 -10
-106 l-20 -40 26 -62 c25 -61 34 -123 52 -333 5 -53 14 -91 26 -109 13 -20 17
-40 13 -66 -6 -48 0 -58 48 -68 l40 -8 5 -58 c6 -63 16 -77 113 -143 37 -26
54 -48 87 -115 53 -109 94 -148 155 -148 24 0 65 7 91 16 67 23 176 19 323
-12 180 -37 307 -27 451 38 24 11 80 29 124 39 116 28 149 50 180 119 14 32
26 64 26 71 0 38 64 142 139 224 112 124 126 154 117 261 -4 53 0 145 10 247
9 89 14 197 12 241 -3 43 -1 97 4 120 12 63 38 323 38 394 0 37 6 75 15 92
l16 30 -66 0 -65 0 0 -145 c0 -139 -1 -148 -29 -209 -69 -153 -228 -346 -283
-346 -15 0 -33 7 -40 16 -7 9 -25 29 -40 44 -23 23 -25 29 -12 34 29 11 10 50
-51 99 -33 26 -75 60 -93 75 -18 15 -50 32 -70 39 -46 14 -119 16 -127 3 -3
-5 -20 -10 -37 -10 -18 0 -52 -10 -77 -22 -69 -33 -131 -34 -241 -4 -117 32
-124 32 -152 1 -23 -25 -95 -55 -130 -55 -14 0 -18 -6 -16 -22 2 -16 -9 -31
-45 -59 -27 -20 -49 -40 -50 -45 0 -5 12 -12 29 -15 16 -4 21 -7 12 -8 -22 -1
-58 -70 -58 -111 0 -36 -15 -38 -69 -10 -89 45 -145 117 -212 272 -35 81 -42
108 -51 208 -5 63 -7 150 -4 193 l6 77 -53 0 -53 0 -13 -60z m859 -634 c605
18 635 16 668 -34 9 -14 26 -55 38 -90 17 -51 20 -71 12 -94 -11 -31 -59 -61
-118 -73 -19 -4 -72 -18 -116 -32 -109 -33 -124 -30 -141 29 -17 58 -27 62
-153 53 -107 -8 -116 -12 -140 -73 -8 -20 -22 -35 -36 -38 -58 -15 -191 30
-246 84 -38 35 -38 103 1 192 34 79 55 92 131 82 30 -4 75 -6 100 -6z"/>
</g>
</svg>
